<?xml version="1.0" standalone="no"?>
<!DOCTYPE svg PUBLIC "-//W3C//DTD SVG 20010904//EN"
 "http://www.w3.org/TR/2001/REC-SVG-20010904/DTD/svg10.dtd">
<svg version="1.0" xmlns="http://www.w3.org/2000/svg"
 width="512.000000pt" height="512.000000pt" viewBox="0 0 512.000000 512.000000"
 preserveAspectRatio="xMidYMid meet">
<metadata>
Created by potrace 1.14, written by Peter Selinger 2001-2017
</metadata>
<g transform="translate(0.000000,512.000000) scale(0.100000,-0.100000)"
fill="#000000" stroke="none">
<path d="M3775 4589 c-16 -5 -46 -15 -65 -21 -100 -32 -213 -135 -264 -243
-42 -87 -54 -143 -51 -237 l3 -73 -39 -32 c-58 -47 -138 -114 -183 -154 -23
-19 -99 -85 -171 -144 -71 -60 -135 -114 -141 -120 -6 -5 -91 -77 -189 -160
-98 -82 -314 -265 -481 -406 l-303 -256 -47 2 c-104 6 -301 -53 -483 -145
-258 -129 -561 -363 -706 -545 -22 -27 -42 -52 -45 -55 -21 -20 -76 -121 -95
-176 -23 -66 -24 -98 -4 -161 11 -34 73 -93 97 -93 8 0 44 -30 80 -67 350
-351 778 -389 1162 -103 238 177 353 396 344 655 -5 140 -23 220 -81 359 -30
74 -31 80 -15 92 9 6 40 29 69 50 29 22 98 73 155 114 56 41 157 116 225 165
380 280 525 387 611 452 53 39 98 70 99 69 2 -1 -9 -49 -23 -107 -24 -100
-132 -558 -139 -589 -1 -8 -8 -33 -13 -55 -6 -22 -13 -51 -16 -65 -2 -14 -16
-73 -30 -133 -14 -59 -28 -118 -30 -130 -2 -12 -11 -49 -20 -83 -8 -33 -17
-69 -19 -80 -19 -110 -63 -267 -76 -272 -27 -10 -84 -55 -124 -97 -152 -162
-304 -539 -335 -830 -28 -256 43 -414 175 -391 21 4 63 6 93 5 154 -7 268 -2
324 15 108 32 186 77 256 147 81 81 123 151 169 282 33 96 35 109 35 227 0
104 -4 135 -22 185 -42 111 -115 205 -235 300 l-38 30 14 45 c28 85 143 454
224 720 19 63 38 126 43 140 5 14 21 66 36 115 14 50 37 124 49 165 13 41 27
86 31 100 7 23 8 22 21 -20 8 -25 29 -103 48 -175 18 -71 43 -165 54 -207 12
-43 41 -156 66 -250 24 -95 56 -216 70 -268 96 -363 117 -453 106 -474 -57
-114 -47 -421 20 -626 70 -216 170 -313 268 -261 11 6 26 19 33 29 7 10 35 26
62 36 98 37 199 124 241 206 82 161 56 382 -61 527 -41 50 -86 79 -174 113
-62 25 -65 27 -71 65 -5 33 -95 511 -114 605 -3 14 -10 52 -16 85 -6 33 -28
148 -49 255 -50 254 -98 498 -103 530 -3 14 -14 68 -25 120 -12 52 -23 109
-26 125 -3 17 -8 41 -11 55 -5 22 -24 118 -28 144 -1 5 9 10 23 11 14 1 39 5
55 9 17 4 39 10 50 12 50 10 147 69 200 121 216 218 184 574 -69 748 -79 54
-147 76 -256 80 -52 2 -108 -1 -125 -6z m251 -100 c62 -23 136 -79 177 -132
123 -161 107 -385 -38 -530 -72 -73 -193 -124 -276 -118 -25 2 -63 114 -49
142 40 74 -22 213 -117 262 -39 21 -125 15 -187 -12 -33 -15 -52 -18 -56 -11
-4 6 -3 39 2 73 35 257 301 417 544 326z m-412 -568 c14 -15 16 -29 11 -61 -4
-24 -12 -39 -18 -37 -13 4 -87 97 -87 110 0 16 77 7 94 -12z m-157 -48 c3 -10
24 -40 46 -66 21 -27 37 -51 34 -54 -3 -3 -26 -8 -51 -10 -38 -5 -48 -2 -70
20 -21 21 -24 30 -17 54 10 35 33 73 44 73 4 0 10 -8 14 -17z m-1565 -1262
c15 -5 29 -18 32 -29 10 -31 -19 -106 -69 -182 -44 -64 -190 -222 -256 -276
-127 -104 -327 -244 -348 -244 -5 0 -11 -3 -13 -8 -1 -4 -35 -24 -74 -44 -232
-121 -456 -178 -522 -133 -60 43 28 205 207 384 98 97 103 101 220 190 210
160 512 313 676 343 46 9 123 8 147 -1z m1097 -941 c12 -53 7 -212 -8 -290
-47 -235 -163 -513 -266 -640 -40 -50 -99 -100 -116 -100 -33 0 -51 44 -54
132 -3 76 0 109 20 237 8 56 49 197 82 286 75 202 207 404 283 433 33 13 46 0
59 -58z m1142 -168 c42 -77 81 -211 96 -332 19 -147 -5 -360 -41 -360 -43 0
-109 139 -147 311 -37 167 -30 423 12 450 21 13 49 -11 80 -69z"/>
</g>
</svg>
