<?xml version="1.0" standalone="no"?>
<!DOCTYPE svg PUBLIC "-//W3C//DTD SVG 20010904//EN"
 "http://www.w3.org/TR/2001/REC-SVG-20010904/DTD/svg10.dtd">
<svg version="1.0" xmlns="http://www.w3.org/2000/svg"
 width="512.000000pt" height="512.000000pt" viewBox="0 0 512.000000 512.000000"
 preserveAspectRatio="xMidYMid meet">
<metadata>
Created by potrace 1.14, written by Peter Selinger 2001-2017
</metadata>
<g transform="translate(0.000000,512.000000) scale(0.100000,-0.100000)"
fill="#000000" stroke="none">
<path d="M2448 5015 c-2 -1 -46 -5 -98 -9 -88 -6 -114 -9 -180 -21 -14 -3 -43
-7 -65 -11 -108 -15 -316 -78 -455 -136 -613 -258 -1090 -756 -1334 -1390 -51
-133 -58 -159 -47 -176 4 -8 14 8 25 44 10 31 20 54 23 51 2 -3 -9 -47 -25
-99 -17 -51 -33 -106 -35 -123 -3 -16 -15 -75 -25 -130 -11 -55 -23 -127 -27
-160 -11 -96 -14 -314 -4 -321 5 -3 9 12 10 33 0 21 2 45 3 53 2 8 6 51 10 95
20 262 96 586 178 760 21 45 21 47 -38 -132 -41 -125 -86 -316 -99 -428 -4
-27 -8 -57 -11 -65 -6 -22 -16 -335 -10 -329 2 2 7 45 10 94 12 171 17 240 21
255 2 8 7 35 10 60 25 178 108 461 180 610 33 69 125 240 153 285 55 89 195
266 269 341 412 418 829 625 1433 710 98 14 406 4 525 -17 33 -6 71 -13 85
-15 170 -29 418 -114 595 -203 109 -56 307 -178 325 -200 3 -4 21 -18 40 -31
97 -68 302 -265 374 -362 161 -214 308 -473 368 -648 60 -176 127 -472 114
-505 -3 -8 -2 -16 2 -19 4 -3 9 -22 10 -42 2 -21 5 -40 7 -43 3 -2 -1 -11 -8
-19 -6 -9 -7 -13 -2 -10 7 4 10 -53 10 -162 0 -93 -2 -167 -5 -165 -3 2 -6
-25 -6 -58 -1 -55 -9 -122 -14 -122 -1 0 -3 -13 -5 -30 -2 -27 -15 -116 -21
-140 -93 -405 -294 -793 -553 -1068 -103 -109 -63 -88 65 35 92 88 113 104 94
73 -97 -163 -330 -381 -585 -547 -66 -43 -115 -78 -109 -78 5 0 14 3 20 8 5 4
1 -1 -9 -10 -22 -20 -42 -24 -31 -6 5 7 3 8 -5 4 -7 -5 -10 -11 -7 -14 8 -7
-18 -24 -110 -72 -44 -23 -68 -38 -54 -34 28 7 219 101 290 142 204 117 414
292 581 482 124 142 235 302 223 323 -4 7 -3 9 1 4 11 -9 46 43 38 56 -3 6 -1
7 5 3 12 -7 16 5 13 33 -2 8 2 10 10 5 9 -5 10 -2 6 10 -5 11 -3 15 5 10 8 -5
9 -2 5 10 -4 10 -3 15 3 11 10 -6 14 7 11 34 -2 8 2 10 10 6 7 -5 10 -3 7 6
-3 8 1 20 9 27 7 8 11 18 8 23 -4 5 -1 9 5 9 6 0 8 5 5 10 -3 6 -1 10 4 10 6
0 11 3 10 8 -2 14 13 52 21 52 4 0 7 6 6 13 0 6 11 44 26 82 24 64 65 188 74
225 2 8 11 44 19 80 9 36 19 76 21 90 2 14 7 36 11 50 3 14 7 36 8 50 2 14 7
52 11 85 5 33 9 138 9 232 0 95 2 173 5 173 13 0 9 53 -5 67 -8 8 -12 20 -8
26 4 7 8 6 11 -3 3 -8 10 -18 16 -22 20 -13 24 -187 4 -199 -10 -7 -10 -9 0
-9 7 0 12 -13 12 -33 0 -18 -6 -39 -12 -46 -10 -11 -10 -13 -1 -7 7 4 13 2 13
-3 0 -6 -5 -11 -11 -11 -8 0 -7 -6 2 -17 12 -15 12 -16 -1 -8 -11 5 -12 5 -5
-3 14 -16 6 -114 -8 -106 -9 5 -9 4 -1 -5 12 -13 -10 -176 -40 -304 -9 -37
-14 -72 -11 -77 4 -6 2 -10 -3 -10 -5 0 -9 -6 -10 -12 -2 -22 -7 -43 -15 -55
-4 -6 -4 -18 -1 -26 3 -8 0 -18 -5 -22 -6 -3 -9 -11 -6 -16 4 -5 1 -9 -5 -9
-6 0 -8 -4 -5 -10 3 -5 2 -10 -2 -10 -5 0 -10 -9 -11 -20 -4 -44 -6 -50 -14
-50 -5 0 -6 -4 -3 -10 3 -5 1 -10 -5 -10 -6 0 -8 -4 -5 -10 3 -5 2 -10 -4 -10
-6 0 -7 -7 -4 -17 5 -11 3 -14 -6 -8 -10 5 -11 2 -7 -12 4 -12 1 -25 -9 -33
-8 -7 -12 -16 -9 -21 3 -5 0 -9 -6 -9 -6 0 -8 -4 -5 -10 3 -5 2 -10 -4 -10 -6
0 -7 -7 -4 -17 5 -12 3 -14 -7 -8 -10 6 -12 4 -7 -9 5 -11 3 -15 -5 -10 -8 5
-9 2 -5 -10 5 -11 3 -15 -5 -10 -8 5 -9 2 -5 -10 4 -9 3 -15 -2 -12 -5 3 -12
-1 -15 -10 -3 -8 -2 -12 4 -9 6 3 7 -1 4 -9 -3 -9 -10 -14 -14 -11 -4 3 -11
-2 -14 -11 -4 -9 -2 -13 5 -8 18 11 -11 -39 -35 -59 -11 -10 -14 -15 -6 -11
11 6 11 1 -4 -21 -10 -17 -25 -35 -33 -41 -7 -7 -16 -22 -18 -35 -3 -13 -17
-35 -32 -48 -16 -13 -22 -20 -14 -16 9 5 8 -1 -4 -19 -9 -14 -22 -23 -28 -19
-5 3 -7 2 -4 -4 8 -13 -53 -95 -145 -196 -218 -239 -435 -406 -708 -544 -92
-47 -247 -112 -275 -117 -5 -1 -14 -4 -20 -8 -28 -16 -284 -82 -385 -98 -41
-6 -86 -13 -100 -16 -14 -2 -83 -7 -155 -10 -71 -4 -132 -9 -135 -12 -3 -2 63
-2 145 1 142 6 197 11 255 22 14 3 43 8 65 11 22 3 79 16 128 28 48 12 84 19
80 15 -24 -23 -317 -80 -483 -95 -36 -3 -78 -7 -95 -9 -16 -2 -41 -4 -55 -5
l-25 -2 25 -7 c56 -17 256 -2 428 30 550 105 1055 401 1412 829 382 459 573
1009 564 1625 -2 160 -5 200 -29 365 -2 14 -7 45 -10 70 -12 81 -83 343 -118
435 -115 300 -298 577 -547 825 -334 336 -754 570 -1190 664 -158 34 -179 37
-303 51 -56 7 -324 14 -329 10z m495 -62 c-7 -2 -19 -2 -25 0 -7 3 -2 5 12 5
14 0 19 -2 13 -5z m62 -13 c3 -6 -1 -7 -9 -4 -18 7 -21 14 -7 14 6 0 13 -4 16
-10z m277 -71 c32 -12 57 -23 55 -26 -3 -2 -28 5 -56 17 -29 11 -89 30 -134
41 -45 12 -86 25 -90 29 -12 11 152 -34 225 -61z m128 -49 c8 -5 11 -10 5 -10
-5 0 -17 5 -25 10 -8 5 -10 10 -5 10 6 0 17 -5 25 -10z m85 -40 c3 -6 -1 -7
-9 -4 -18 7 -21 14 -7 14 6 0 13 -4 16 -10z m70 -38 c-3 -3 -11 0 -18 7 -9 10
-8 11 6 5 10 -3 15 -9 12 -12z m125 -68 c0 -2 -9 0 -20 6 -11 6 -20 13 -20 16
0 2 9 0 20 -6 11 -6 20 -13 20 -16z m35 -14 c3 -6 -1 -7 -9 -4 -18 7 -21 14
-7 14 6 0 13 -4 16 -10z m209 -142 c56 -42 142 -115 191 -163 88 -85 88 -86
10 -14 -102 92 -212 180 -297 237 -38 25 -68 47 -68 49 0 9 65 -35 164 -109z
m567 -605 c13 -16 12 -17 -3 -4 -17 13 -22 21 -14 21 2 0 10 -8 17 -17z m81
-140 c74 -135 169 -347 168 -377 -1 -6 -20 36 -43 94 -45 109 -93 209 -154
318 -19 34 -32 62 -30 62 3 0 29 -44 59 -97z m-4243 -362 c-6 -18 -13 -30 -15
-28 -2 2 1 18 7 36 6 18 13 30 15 28 2 -2 -1 -18 -7 -36z m4431 -66 c0 -5 -5
-3 -10 5 -5 8 -10 20 -10 25 0 6 5 3 10 -5 5 -8 10 -19 10 -25z m17 -67 c-3
-8 -6 -5 -6 6 -1 11 2 17 5 13 3 -3 4 -12 1 -19z m22 -68 c0 -9 -4 -8 -9 5 -5
11 -9 27 -9 35 0 9 4 8 9 -5 5 -11 9 -27 9 -35z m8 -42 c-3 -8 -6 -5 -6 6 -1
11 2 17 5 13 3 -3 4 -12 1 -19z m20 -100 c-3 -7 -5 -2 -5 12 0 14 2 19 5 13 2
-7 2 -19 0 -25z m40 -10 c-3 -8 -6 -5 -6 6 -1 11 2 17 5 13 3 -3 4 -12 1 -19z
m10 -33 c0 -8 -4 -12 -9 -9 -5 3 -6 10 -3 15 9 13 12 11 12 -6z m14 -82 c1
-16 2 -46 3 -68 1 -22 5 -46 10 -53 12 -19 -2 -14 -26 10 -12 12 -15 19 -7 16
11 -4 14 5 12 46 -2 28 -5 56 -7 63 -3 7 -1 13 4 13 6 0 11 -12 11 -27z m-30
-36 c-10 -9 -11 -8 -5 6 3 10 9 15 12 12 3 -3 0 -11 -7 -18z m38 -886 c-7 -28
-15 -49 -17 -46 -2 2 2 27 9 54 7 28 15 49 17 46 2 -2 -2 -27 -9 -54z m-294
-711 c-9 -16 -18 -30 -21 -30 -2 0 2 14 11 30 9 17 18 30 21 30 2 0 -2 -13
-11 -30z m-31 -52 c-113 -184 -330 -436 -477 -553 -34 -27 -68 -56 -75 -62
-17 -16 -127 -94 -167 -118 -46 -29 -18 -4 67 58 236 173 479 423 613 633 19
30 37 54 40 54 4 0 3 -6 -1 -12z m-759 -758 c-3 -5 -16 -15 -28 -21 -19 -9
-19 -8 3 10 28 23 34 26 25 11z"/>
<path d="M1902 4118 c-8 -11 -44 -215 -67 -383 -4 -22 -10 -65 -15 -95 -6 -30
-12 -75 -15 -100 -3 -25 -14 -97 -25 -160 -11 -63 -22 -137 -25 -165 -4 -27
-8 -57 -10 -65 -2 -8 -7 -35 -10 -60 -3 -25 -17 -112 -30 -195 -13 -82 -27
-170 -30 -194 -6 -52 -14 -101 -20 -121 -2 -8 -7 -39 -10 -67 -9 -71 -20 -110
-40 -129 -32 -33 -123 -150 -174 -225 -100 -149 -166 -333 -138 -386 19 -35
69 -70 133 -92 35 -13 64 -24 64 -25 0 -2 -51 -247 -75 -355 -23 -111 -54
-233 -65 -258 -25 -59 34 -71 62 -13 13 28 61 237 84 370 2 14 9 48 15 76 5
28 12 64 15 80 15 95 9 90 97 73 199 -36 555 -42 827 -13 49 5 256 32 305 40
30 4 59 10 105 20 14 3 36 7 50 10 209 40 484 140 498 182 6 19 -27 14 -109
-18 -113 -44 -282 -81 -524 -115 -78 -11 -101 -14 -220 -25 -66 -6 -142 -13
-170 -16 -85 -10 -535 -12 -630 -3 -117 11 -189 20 -194 24 -3 4 30 190 85
474 l24 124 64 71 c376 418 918 856 1856 1498 69 47 136 95 148 106 13 12 27
22 30 24 18 8 62 72 62 89 0 25 -15 24 -53 -5 -18 -13 -72 -45 -122 -71 -296
-157 -657 -403 -1038 -709 -106 -84 -210 -169 -232 -187 -117 -101 -275 -238
-314 -274 -24 -22 -49 -44 -55 -50 -7 -5 -80 -77 -163 -158 l-150 -148 18 98
c10 54 25 136 34 183 9 47 18 96 20 110 3 14 12 63 20 110 9 47 20 110 26 140
6 30 12 69 15 85 3 17 16 86 29 155 13 69 26 141 29 160 3 19 24 134 46 255
22 121 40 236 40 255 0 61 -49 103 -78 68z m-327 -2005 c-9 -48 -19 -99 -21
-113 -27 -155 -46 -254 -50 -265 -5 -12 -14 -11 -56 5 -59 22 -88 46 -88 72 0
27 37 112 83 188 45 76 140 210 145 205 2 -2 -4 -43 -13 -92z"/>
<path d="M247 3251 c-4 -17 -3 -21 5 -13 5 5 8 16 6 23 -3 8 -7 3 -11 -10z"/>
<path d="M4901 2644 c0 -11 3 -14 6 -6 3 7 2 16 -1 19 -3 4 -6 -2 -5 -13z"/>
<path d="M411 1480 c14 -31 19 -36 19 -24 0 6 -7 19 -16 30 -14 18 -14 18 -3
-6z"/>
<path d="M433 1433 c178 -335 444 -635 765 -861 62 -45 31 -14 -40 39 -256
189 -473 430 -658 727 -34 56 -65 102 -67 102 -2 0 -2 -3 0 -7z"/>
<path d="M4605 1399 c-4 -6 -5 -12 -2 -15 2 -3 7 2 10 11 7 17 1 20 -8 4z"/>
<path d="M4510 1240 c-6 -11 -8 -20 -6 -20 3 0 10 9 16 20 6 11 8 20 6 20 -3
0 -10 -9 -16 -20z"/>
<path d="M4015 894 c-38 -36 -52 -53 -30 -36 22 16 51 42 64 56 13 14 27 23
31 21 4 -2 7 2 7 10 0 8 -1 15 -1 15 -1 0 -32 -30 -71 -66z"/>
<path d="M1280 616 c0 -2 8 -10 18 -17 15 -13 16 -12 3 4 -13 16 -21 21 -21
13z"/>
<path d="M1370 556 c0 -3 9 -10 20 -16 11 -6 20 -8 20 -6 0 3 -9 10 -20 16
-11 6 -20 8 -20 6z"/>
<path d="M1240 547 c0 -3 12 -12 26 -22 15 -9 23 -12 20 -6 -7 11 -46 35 -46
28z"/>
<path d="M1420 525 c0 -2 18 -14 40 -25 22 -11 40 -18 40 -15 0 2 -18 14 -40
25 -22 11 -40 18 -40 15z"/>
<path d="M1307 499 c7 -7 15 -10 18 -7 3 3 -2 9 -12 12 -14 6 -15 5 -6 -5z"/>
<path d="M1510 475 c0 -3 17 -12 38 -22 56 -26 59 -26 35 -9 -23 17 -73 38
-73 31z"/>
<path d="M1620 420 c8 -5 20 -10 25 -10 6 0 3 5 -5 10 -8 5 -19 10 -25 10 -5
0 -3 -5 5 -10z"/>
<path d="M1665 400 c3 -5 14 -10 23 -10 15 0 15 2 2 10 -20 13 -33 13 -25 0z"/>
<path d="M1740 372 c8 -5 26 -13 40 -16 17 -5 20 -4 10 2 -8 5 -26 13 -40 16
-17 5 -20 4 -10 -2z"/>
<path d="M1820 340 c8 -5 22 -9 30 -9 10 0 8 3 -5 9 -27 12 -43 12 -25 0z"/>
<path d="M1750 280 c8 -5 20 -10 25 -10 6 0 3 5 -5 10 -8 5 -19 10 -25 10 -5
0 -3 -5 5 -10z"/>
<path d="M1790 265 c0 -6 162 -55 181 -54 7 0 -29 13 -81 29 -109 34 -100 31
-100 25z"/>
<path d="M1998 203 c7 -3 16 -2 19 1 4 3 -2 6 -13 5 -11 0 -14 -3 -6 -6z"/>
<path d="M2828 203 c7 -3 16 -2 19 1 4 3 -2 6 -13 5 -11 0 -14 -3 -6 -6z"/>
<path d="M2520 190 c-12 -7 -10 -9 7 -7 12 0 19 5 17 9 -6 10 -6 10 -24 -2z"/>
<path d="M2570 190 c-9 -6 -10 -10 -3 -10 6 0 15 5 18 10 8 12 4 12 -15 0z"/>
<path d="M2626 192 c-3 -5 1 -9 9 -9 8 0 12 4 9 9 -3 4 -7 8 -9 8 -2 0 -6 -4
-9 -8z"/>
<path d="M2698 193 c7 -3 16 -2 19 1 4 3 -2 6 -13 5 -11 0 -14 -3 -6 -6z"/>
<path d="M2743 193 c9 -2 23 -2 30 0 6 3 -1 5 -18 5 -16 0 -22 -2 -12 -5z"/>
<path d="M2378 153 c7 -3 16 -2 19 1 4 3 -2 6 -13 5 -11 0 -14 -3 -6 -6z"/>
<path d="M2438 153 c18 -2 45 -2 60 0 15 2 0 4 -33 4 -33 0 -45 -2 -27 -4z"/>
</g>
</svg>
