<?xml version="1.0" standalone="no"?>
<!DOCTYPE svg PUBLIC "-//W3C//DTD SVG 20010904//EN"
 "http://www.w3.org/TR/2001/REC-SVG-20010904/DTD/svg10.dtd">
<svg version="1.0" xmlns="http://www.w3.org/2000/svg"
 width="519.000000pt" height="519.000000pt" viewBox="0 0 519.000000 519.000000"
 preserveAspectRatio="xMidYMid meet">
<metadata>
Created by potrace 1.14, written by Peter Selinger 2001-2017
</metadata>
<g transform="translate(0.000000,519.000000) scale(0.100000,-0.100000)"
fill="#000000" stroke="none">
<path d="M460 5175 c-136 -17 -159 -24 -177 -51 -20 -32 -27 -92 -14 -126 12
-33 41 -48 151 -78 47 -13 91 -31 97 -39 22 -28 53 -121 61 -180 15 -115 4
-1103 -14 -1326 -8 -94 -6 -2228 2 -2305 11 -102 11 -321 1 -445 -10 -131 -19
-228 -22 -245 -2 -8 -4 -18 -4 -22 -3 -24 -58 -69 -104 -84 -150 -48 -184 -81
-174 -167 6 -51 27 -67 90 -67 266 0 829 -11 892 -17 131 -13 318 -8 465 10
65 9 94 49 86 118 -10 79 -29 95 -126 102 -112 8 -172 47 -191 124 -10 36 -11
508 -4 1353 5 635 4 621 67 639 40 11 328 6 381 -8 21 -5 44 -14 51 -20 19
-16 220 -319 452 -681 188 -295 591 -878 779 -1128 134 -178 200 -250 279
-307 114 -81 321 -167 466 -194 30 -6 69 -13 85 -17 45 -9 687 -17 752 -9 128
16 176 148 89 246 -20 23 -33 27 -103 32 -104 8 -278 52 -325 82 -54 36 -74
57 -193 210 -115 146 -171 226 -355 500 -96 143 -177 262 -180 265 -4 4 -85
125 -449 665 -55 83 -104 155 -109 160 -37 45 -174 261 -178 283 -5 24 -1 30
35 50 22 13 64 27 93 32 95 17 110 21 187 50 98 38 163 78 297 182 123 97 220
196 288 297 52 78 112 201 121 246 37 203 44 266 41 385 -5 186 -53 407 -125
564 -61 136 -190 302 -301 388 -19 15 -59 46 -89 70 -256 202 -448 303 -696
364 -96 23 -135 31 -135 28 0 -3 -8 -1 -17 4 -10 6 -42 13 -72 16 -30 4 -64 9
-75 11 -90 19 -272 25 -926 31 -316 3 -604 7 -640 10 -151 11 -421 10 -510 -1z
m1493 -289 c38 -4 76 -9 86 -11 10 -2 36 -6 57 -9 230 -36 440 -136 587 -280
162 -159 275 -354 328 -563 23 -92 32 -288 17 -383 -4 -25 -10 -65 -14 -90
-13 -95 -66 -276 -103 -355 -90 -192 -236 -337 -426 -423 -139 -62 -303 -89
-520 -83 -131 3 -284 4 -378 1 -40 -1 -74 3 -82 10 -32 27 -38 275 -9 435 13
76 16 224 19 885 2 410 6 765 9 790 7 49 32 77 76 82 42 5 281 1 353 -6z"/>
</g>
</svg>
