<?xml version="1.0" standalone="no"?>
<!DOCTYPE svg PUBLIC "-//W3C//DTD SVG 20010904//EN"
 "http://www.w3.org/TR/2001/REC-SVG-20010904/DTD/svg10.dtd">
<svg version="1.0" xmlns="http://www.w3.org/2000/svg"
 width="491.000000pt" height="491.000000pt" viewBox="0 0 491.000000 491.000000"
 preserveAspectRatio="xMidYMid meet">
<metadata>
Created by potrace 1.14, written by Peter Selinger 2001-2017
</metadata>
<g transform="translate(0.000000,491.000000) scale(0.100000,-0.100000)"
fill="#000000" stroke="none">
<path d="M2268 4905 c-2 -1 -32 -5 -68 -9 -205 -19 -414 -71 -640 -158 -84
-32 -304 -147 -390 -203 -451 -296 -788 -725 -977 -1244 -44 -123 -34 -158 12
-41 44 111 44 98 0 -34 -70 -212 -104 -404 -111 -626 -6 -179 9 -214 21 -50 8
120 15 188 20 219 2 13 7 45 11 70 5 37 26 132 59 271 12 48 77 237 86 250 12
17 14 24 -25 -93 -24 -73 -63 -212 -72 -257 -35 -179 -46 -277 -51 -430 -3
-96 -3 -173 0 -170 3 3 8 68 11 145 3 77 8 151 10 165 3 14 7 47 11 73 24 190
107 481 184 647 132 284 288 504 501 705 277 262 551 426 894 536 93 30 289
75 365 84 25 3 61 9 82 14 60 13 503 2 529 -14 3 -2 26 -6 50 -10 25 -3 90
-17 145 -30 397 -94 731 -277 1051 -575 130 -121 232 -251 368 -468 69 -110
168 -328 206 -454 44 -144 94 -373 85 -388 -3 -5 -2 -11 3 -14 8 -5 14 -55 16
-141 1 -22 6 -43 11 -47 6 -5 5 -8 -2 -8 -7 0 -13 -5 -13 -11 0 -5 5 -7 11 -3
8 5 8 1 0 -13 -7 -14 -7 -24 2 -33 9 -10 9 -11 0 -6 -7 4 -13 2 -13 -3 0 -6 6
-11 13 -11 7 0 8 -3 2 -8 -14 -10 -17 -32 -5 -32 6 0 6 -9 0 -24 -6 -16 -5
-27 3 -35 8 -8 8 -14 2 -19 -6 -4 -10 -36 -11 -72 0 -36 -4 -90 -8 -120 -4
-30 -9 -68 -11 -85 -2 -16 -4 -30 -5 -30 -1 0 -3 -16 -6 -35 -18 -151 -138
-540 -166 -540 -5 0 -7 -4 -3 -9 12 -20 -151 -304 -254 -441 -97 -130 -180
-222 -192 -214 -5 3 -8 0 -7 -7 2 -7 -2 -13 -9 -14 -6 0 -24 -11 -40 -25 -15
-14 -45 -40 -66 -57 -22 -18 -34 -33 -29 -33 5 0 36 24 68 54 33 30 62 50 65
45 3 -6 61 43 129 108 l124 118 -53 -77 c-112 -163 -306 -343 -526 -490 -66
-44 -119 -85 -117 -90 2 -6 -4 -8 -12 -5 -9 4 -18 1 -22 -5 -5 -7 -2 -8 7 -3
10 6 11 5 4 -3 -12 -13 -103 -65 -162 -92 -24 -11 -43 -21 -43 -24 0 -8 84 28
190 82 277 142 526 344 735 597 105 127 231 325 217 340 -4 4 -2 5 4 2 7 -4
15 0 18 9 4 10 2 13 -7 8 -6 -4 -2 3 11 15 12 12 20 26 17 32 -4 5 -1 9 5 9 6
0 8 4 5 10 -3 5 -1 10 5 10 6 0 8 5 5 10 -3 6 -1 10 5 10 6 0 8 5 5 10 -3 6
-1 10 5 10 6 0 8 5 5 10 -3 6 -1 10 5 10 6 0 9 4 5 9 -3 5 -1 12 5 16 6 4 8
11 5 16 -4 5 -1 9 5 9 6 0 8 5 5 10 -3 6 -2 10 3 10 5 0 9 6 9 13 2 19 27 81
36 88 5 3 8 9 7 13 0 3 17 64 39 134 22 70 42 138 45 152 3 14 8 36 11 50 4
14 8 34 10 45 2 11 4 20 5 20 1 0 4 11 6 25 10 78 13 95 15 95 3 0 22 190 22
233 0 6 5 12 11 12 6 0 5 5 -2 12 -14 14 -16 32 -3 24 5 -4 6 9 1 29 -5 24 -4
35 4 35 6 0 4 5 -4 10 -11 7 -11 10 -2 10 9 0 10 6 5 18 -11 21 -10 43 1 61 6
9 5 12 -1 8 -18 -11 -21 40 -4 58 13 14 14 15 1 12 -8 -2 -12 -2 -7 0 4 3 7
20 7 39 0 19 4 34 9 34 11 0 11 -5 11 -245 0 -93 -2 -181 -5 -195 -3 -14 -7
-52 -10 -85 -5 -72 -10 -110 -36 -240 -11 -55 -21 -108 -22 -117 -1 -10 -5
-18 -9 -18 -4 0 -5 -9 -3 -20 2 -11 -1 -20 -7 -20 -6 0 -8 -9 -5 -20 3 -11 1
-23 -4 -26 -5 -3 -7 -10 -4 -15 4 -5 1 -9 -6 -9 -7 0 -10 -3 -6 -6 3 -4 0 -21
-8 -39 -7 -19 -11 -36 -7 -39 3 -3 0 -6 -6 -6 -6 0 -9 -7 -6 -15 4 -8 1 -15
-5 -15 -6 0 -8 -6 -5 -13 3 -8 -2 -19 -10 -26 -8 -7 -12 -20 -9 -28 4 -10 2
-14 -4 -10 -6 4 -14 0 -17 -9 -3 -8 -2 -12 4 -9 6 3 7 -1 4 -9 -3 -9 -10 -16
-16 -16 -5 0 -6 -4 -3 -10 3 -5 2 -10 -4 -10 -6 0 -7 -7 -4 -17 4 -10 2 -14
-4 -10 -12 7 -26 -20 -18 -33 3 -4 -2 -11 -11 -14 -9 -4 -14 -13 -10 -22 4 -9
2 -13 -5 -8 -7 4 -10 1 -7 -7 3 -8 -2 -20 -11 -27 -9 -8 -10 -11 -4 -7 9 4 11
1 7 -9 -3 -9 -10 -14 -14 -11 -4 3 -11 -2 -14 -11 -4 -10 -2 -13 7 -9 6 4 4 0
-5 -8 -10 -8 -18 -22 -18 -31 0 -10 -4 -15 -9 -12 -5 3 -12 -1 -15 -10 -4 -9
-2 -13 5 -8 8 4 7 0 0 -15 -7 -11 -14 -21 -17 -21 -3 0 -2 5 2 12 4 7 3 8 -5
4 -6 -4 -10 -13 -9 -19 3 -12 -39 -87 -48 -87 -3 0 -2 5 2 12 4 7 3 8 -5 4 -6
-4 -9 -11 -6 -16 8 -14 -25 -61 -38 -53 -6 3 -7 1 -3 -5 4 -6 0 -19 -8 -29
-274 -342 -518 -543 -859 -711 -197 -97 -349 -148 -615 -208 -13 -3 -43 -7
-65 -10 -23 -3 -48 -7 -54 -9 -13 -4 -145 -15 -225 -19 -26 -1 -50 -4 -53 -8
-7 -6 166 -1 230 7 22 3 63 7 90 11 65 7 234 42 247 51 6 3 8 1 4 -5 -15 -25
-353 -84 -538 -94 -21 -1 -38 -6 -38 -11 0 -9 248 -3 295 6 11 3 42 8 68 11
189 28 460 111 643 197 151 72 412 232 476 291 7 7 35 31 62 53 55 44 210 195
272 265 232 262 434 647 514 980 33 137 42 190 36 206 -3 8 -2 13 3 10 4 -3
11 20 15 52 4 31 10 82 14 112 9 73 9 416 -1 510 -37 374 -131 685 -289 961
-169 295 -416 571 -698 779 -276 203 -638 361 -975 426 -22 4 -47 9 -55 10
-27 6 -98 15 -177 24 -68 7 -388 11 -395 5z m546 -53 c3 -5 -8 -6 -25 -4 -16
2 -29 6 -29 8 0 8 49 4 54 -4z m93 -18 c-3 -3 -12 -4 -19 -1 -8 3 -5 6 6 6 11
1 17 -2 13 -5z m73 -14 c20 -6 21 -8 5 -8 -11 0 -29 3 -40 8 -25 11 1 11 35 0z
m126 -34 c90 -32 71 -33 -26 -1 -41 13 -68 24 -59 25 8 0 46 -11 85 -24z m161
-62 c-5 -5 -57 13 -57 20 0 3 14 0 31 -6 16 -6 28 -12 26 -14z m48 -22 c-3 -3
-11 0 -18 7 -9 10 -8 11 6 5 10 -3 15 -9 12 -12z m45 -12 c8 -5 11 -10 5 -10
-5 0 -17 5 -25 10 -8 5 -10 10 -5 10 6 0 17 -5 25 -10z m165 -88 c-3 -3 -11 0
-18 7 -9 10 -8 11 6 5 10 -3 15 -9 12 -12z m130 -72 c3 -5 -10 -1 -29 11 -20
12 -36 23 -36 25 0 7 58 -25 65 -36z m118 -79 c7 -8 -7 -2 -30 14 -24 15 -43
30 -43 32 0 7 61 -31 73 -46z m182 -142 c50 -42 106 -94 125 -115 19 -21 1 -7
-41 32 -42 38 -109 96 -150 128 -41 33 -81 67 -89 75 -32 32 70 -47 155 -120z
m376 -406 c13 -16 12 -17 -3 -4 -17 13 -22 21 -14 21 2 0 10 -8 17 -17z m147
-241 c61 -108 172 -356 172 -383 0 -8 -18 29 -39 81 -61 150 -95 221 -155 325
-31 53 -52 93 -47 90 5 -3 36 -53 69 -113z m-4167 -279 c-12 -20 -14 -14 -5
12 4 9 9 14 11 11 3 -2 0 -13 -6 -23z m4368 -193 c0 -8 -7 1 -14 20 -18 46
-17 64 0 25 8 -16 14 -37 14 -45z m8 -42 c-3 -8 -6 -5 -6 6 -1 11 2 17 5 13 3
-3 4 -12 1 -19z m10 -40 c-3 -8 -6 -5 -6 6 -1 11 2 17 5 13 3 -3 4 -12 1 -19z
m10 -40 c-3 -8 -6 -5 -6 6 -1 11 2 17 5 13 3 -3 4 -12 1 -19z m10 -40 c-3 -8
-6 -5 -6 6 -1 11 2 17 5 13 3 -3 4 -12 1 -19z m10 -40 c-3 -8 -6 -5 -6 6 -1
11 2 17 5 13 3 -3 4 -12 1 -19z m50 -80 c-3 -7 -5 -2 -5 12 0 14 2 19 5 13 2
-7 2 -19 0 -25z m13 -53 c0 -8 -4 -15 -8 -15 -5 0 -9 7 -9 15 0 8 4 15 9 15 4
0 8 -7 8 -15z m7 -63 c1 -26 -1 -32 -7 -21 -5 8 -7 24 -5 35 7 36 10 33 12
-14z m-25 -54 c-8 -8 -9 -4 -5 13 4 13 8 18 11 10 2 -7 -1 -18 -6 -23z m35
-800 c-3 -7 -5 -2 -5 12 0 14 2 19 5 13 2 -7 2 -19 0 -25z m-10 -50 c-3 -8 -6
-5 -6 6 -1 11 2 17 5 13 3 -3 4 -12 1 -19z m-30 -100 c-3 -8 -6 -5 -6 6 -1 11
2 17 5 13 3 -3 4 -12 1 -19z m-16 -41 c-10 -9 -11 -8 -5 6 3 10 9 15 12 12 3
-3 0 -11 -7 -18z m-198 -462 c-3 -9 -8 -14 -10 -11 -3 3 -2 9 2 15 9 16 15 13
8 -4z m-48 -85 c-9 -16 -18 -30 -21 -30 -2 0 2 14 11 30 9 17 18 30 21 30 2 0
-2 -13 -11 -30z m-42 -71 c-24 -40 -143 -198 -206 -274 -113 -135 -353 -346
-482 -425 -63 -39 -27 -5 66 60 196 139 412 358 566 576 69 96 89 119 56 63z
m-743 -734 c0 -2 -10 -9 -22 -15 -22 -11 -22 -10 -4 4 21 17 26 19 26 11z
m-613 -271 c-3 -3 -12 -4 -19 -1 -8 3 -5 6 6 6 11 1 17 -2 13 -5z"/>
<path d="M1800 4014 c-10 -11 -31 -120 -45 -224 -3 -25 -8 -56 -10 -70 -6 -32
-4 -17 -74 -475 -33 -214 -63 -408 -67 -430 -3 -22 -7 -49 -9 -60 -13 -89 -46
-295 -50 -315 -7 -36 -17 -103 -18 -118 0 -6 -21 -36 -45 -65 -214 -249 -336
-501 -288 -595 17 -33 79 -73 145 -93 l43 -13 -6 -40 c-7 -52 -53 -269 -101
-478 -2 -9 -11 -44 -21 -78 -15 -53 -15 -63 -3 -71 28 -17 53 16 76 100 12 45
24 96 26 114 5 29 70 361 83 416 4 18 9 22 27 17 31 -9 145 -25 230 -33 145
-13 591 -7 682 11 11 2 46 7 79 11 32 3 68 8 80 10 11 2 43 6 69 10 27 3 92
15 144 25 53 11 105 22 117 24 55 10 219 59 291 87 95 36 145 65 145 85 0 20
-9 18 -95 -16 -108 -43 -341 -96 -504 -115 -30 -4 -61 -8 -70 -10 -9 -1 -47
-6 -86 -10 -38 -4 -80 -8 -92 -10 -12 -2 -66 -7 -120 -10 -54 -4 -116 -9 -138
-11 -55 -4 -483 -4 -520 1 -16 2 -61 6 -100 9 -38 3 -82 9 -96 14 l-26 7 44
230 c24 127 45 241 48 254 2 13 7 43 11 66 5 36 20 58 97 141 277 297 619 592
1117 965 218 163 222 166 515 367 367 253 424 298 439 349 11 35 -7 34 -70 -6
-32 -21 -111 -66 -174 -101 -489 -268 -1193 -812 -1725 -1332 -82 -80 -151
-145 -152 -144 -1 1 9 63 23 137 13 73 27 150 30 169 3 19 7 42 9 50 3 8 36
188 74 400 38 212 84 464 102 560 36 201 40 261 16 288 -20 22 -43 24 -57 6z
m-355 -2148 c-24 -131 -46 -240 -48 -242 -2 -2 -26 3 -53 12 -60 20 -95 54
-87 86 18 74 137 280 203 350 11 12 20 26 20 32 0 5 2 7 4 5 2 -2 -15 -111
-39 -243z"/>
<path d="M145 3149 c-4 -11 -4 -23 -1 -26 3 -4 6 1 6 10 0 8 5 17 12 19 9 3 9
6 1 11 -7 4 -14 -1 -18 -14z"/>
<path d="M121 3064 c0 -11 3 -14 6 -6 3 7 2 16 -1 19 -3 4 -6 -2 -5 -13z"/>
<path d="M4791 2634 c0 -11 3 -14 6 -6 3 7 2 16 -1 19 -3 4 -6 -2 -5 -13z"/>
<path d="M316 1357 c3 -10 9 -15 12 -12 3 3 0 11 -7 18 -10 9 -11 8 -5 -6z"/>
<path d="M365 1265 c97 -178 229 -351 404 -525 117 -117 163 -156 299 -254 87
-63 58 -33 -40 42 -97 73 -127 99 -218 186 -154 148 -286 313 -405 506 -72
118 -90 137 -40 45z"/>
<path d="M1260 456 c0 -3 9 -10 20 -16 11 -6 20 -8 20 -6 0 3 -9 10 -20 16
-11 6 -20 8 -20 6z"/>
<path d="M1130 447 c0 -3 12 -12 26 -22 15 -9 23 -12 20 -6 -7 11 -46 35 -46
28z"/>
<path d="M1310 426 c0 -3 9 -10 20 -16 11 -6 20 -8 20 -6 0 3 -9 10 -20 16
-11 6 -20 8 -20 6z"/>
<path d="M1365 390 c3 -5 11 -10 16 -10 6 0 7 5 4 10 -3 6 -11 10 -16 10 -6 0
-7 -4 -4 -10z"/>
<path d="M1400 375 c0 -5 70 -42 108 -56 14 -6 24 -7 20 -4 -9 10 -128 65
-128 60z"/>
<path d="M3190 360 c-9 -6 -10 -10 -3 -10 6 0 15 5 18 10 8 12 4 12 -15 0z"/>
<path d="M1589 285 c29 -14 55 -24 58 -22 2 3 -15 12 -39 22 -69 28 -78 27
-19 0z"/>
<path d="M1680 250 c8 -5 20 -10 25 -10 6 0 3 5 -5 10 -8 5 -19 10 -25 10 -5
0 -3 -5 5 -10z"/>
<path d="M1587 199 c7 -7 15 -10 18 -7 3 3 -2 9 -12 12 -14 6 -15 5 -6 -5z"/>
<path d="M1651 176 c2 -2 15 -9 29 -15 24 -11 24 -11 6 3 -16 13 -49 24 -35
12z"/>
<path d="M1723 150 c23 -14 154 -53 141 -41 -5 4 -34 15 -64 23 -30 9 -64 19
-75 23 -19 6 -19 6 -2 -5z"/>
<path d="M2625 90 c4 -7 65 -1 65 6 0 3 -15 4 -34 2 -19 -1 -33 -5 -31 -8z"/>
<path d="M2708 93 c7 -3 16 -2 19 1 4 3 -2 6 -13 5 -11 0 -14 -3 -6 -6z"/>
<path d="M2433 83 c9 -2 25 -2 35 0 9 3 1 5 -18 5 -19 0 -27 -2 -17 -5z"/>
<path d="M2508 83 c12 -2 30 -2 40 0 9 3 -1 5 -23 4 -22 0 -30 -2 -17 -4z"/>
<path d="M2578 83 c6 -2 18 -2 25 0 6 3 1 5 -13 5 -14 0 -19 -2 -12 -5z"/>
<path d="M2258 53 c7 -3 16 -2 19 1 4 3 -2 6 -13 5 -11 0 -14 -3 -6 -6z"/>
<path d="M2290 56 c0 -2 7 -7 16 -10 8 -3 12 -2 9 4 -6 10 -25 14 -25 6z"/>
<path d="M2355 50 c-3 -5 -1 -10 4 -10 6 0 11 5 11 10 0 6 -2 10 -4 10 -3 0
-8 -4 -11 -10z"/>
<path d="M2420 48 c0 -4 7 -8 15 -8 8 0 15 4 15 8 0 5 -7 9 -15 9 -8 0 -15 -4
-15 -9z"/>
<path d="M2388 43 c7 -3 16 -2 19 1 4 3 -2 6 -13 5 -11 0 -14 -3 -6 -6z"/>
</g>
</svg>
